<svg xmlns="http://www.w3.org/2000/svg" viewBox="0 0 96 96">
  <defs><linearGradient id="g" x1="0" x2="1" y1="0" y2="1"><stop offset="0" stop-color="#fde68a"/><stop offset="1" stop-color="#f59e0b"/></linearGradient></defs>
  <ellipse cx="48" cy="82" rx="27" ry="6" fill="#020617" opacity=".45"/>
  <path d="M48 10 24 82M48 10l24 72M33 55h30M28 70h40M36 38h24M30 26h36M48 10v72" fill="none" stroke="url(#g)" stroke-width="5" stroke-linecap="round" stroke-linejoin="round"/>
  <path d="M30 26 12 38M66 26l18 12M36 38 18 17M60 38 42 55M33 55l35 15M63 55 28 70" fill="none" stroke="#fff7ed" stroke-width="2" opacity=".62" stroke-linecap="round"/>
  <path d="M10 38h20M66 38h20" stroke="#facc15" stroke-width="4" stroke-linecap="round"/>
</svg>